PathFileType	4	(X/Y/Z)	../Python\walking\Walking03\task.trc
DataRate	CameraRate	NumFrames	NumMarkers	Units	OrigDataRate	OrigDataStartFrame	OrigNumFrames
200.000000	200.000000	5	30	mm	200.000000	83	671
Frame#	Time	CLAV			STRN			RASI			LASI			RTH1			RTH2			RTH3			RTB1			RTB2			RTB3			RD5M			RTOE			LTH1			LTH2			LTB1			LTB2			LTB3			LTOE			LD5M			LTH3			RHEE			RPSI			T10			PE03			PE02			PE01			C7			LPSI			LHEE			RBAK			
		X1	Y1	Z1	X2	Y2	Z2	X3	Y3	Z3	X4	Y4	Z4	X5	Y5	Z5	X6	Y6	Z6	X7	Y7	Z7	X8	Y8	Z8	X9	Y9	Z9	X10	Y10	Z10	X11	Y11	Z11	X12	Y12	Z12	X13	Y13	Z13	X14	Y14	Z14	X15	Y15	Z15	X16	Y16	Z16	X17	Y17	Z17	X18	Y18	Z18	X19	Y19	Z19	X20	Y20	Z20	X21	Y21	Z21	X22	Y22	Z22	X23	Y23	Z23	X24	Y24	Z24	X25	Y25	Z25	X26	Y26	Z26	X27	Y27	Z27	X28	Y28	Z28	X29	Y29	Z29	X30	Y30	Z30	

84	0.415	-858.8165893554692	1407.509033203125	226.2777862548829	-797.0146484375005	1217.56884765625	226.786590576172	-799.115600585938	1029.41357421875	363.1931762695314	-825.6764526367192	976.7238159179692	91.50431823730472	-774.584350585938	778.519165039063	411.1325683593752	-822.1637573242192	738.8877563476565	408.5478210449221	-790.5336914062505	703.906433105469	390.4162902832034	-713.0955810546877	370.913299560547	326.0044860839845	-750.6660156250002	322.3687133789064	329.6166992187501	-711.8406982421877	293.2101440429689	314.2198791503907	-628.713073730469	17.87387275695801	312.5664367675782	-570.0000000000002	31.78268623352052	272.0120544433595	-953.553100585938	679.142028808594	79.75355529785159	-980.3950195312505	645.013122558594	104.8441390991212	-1095.347534179688	391.2218933105471	92.22538757324222	-1143.833862304688	388.728210449219	105.4385604858399	-1139.687744140625	326.646942138672	101.6322860717774	-1350.494384765625	58.94972991943362	177.7989196777344	-1371.734130859375	87.66939544677737	132.2327423095704	-941.4701538085942	600.4289550781252	85.23126983642581	-782.1377563476567	24.55737113952638	226.1136932373048	-975.141235351563	1053.159423828125	293.0919189453126	-1026.180786132813	1236.811767578125	221.1292419433595	-989.8581542968755	1030.044067382813	222.3335266113282	-982.1950073242192	1037.817626953125	272.4717407226564	-975.712768554688	1093.286499023438	236.4158325195314	-973.6807250976567	1499.181518554688	218.477020263672	-988.1034545898442	1039.87109375	194.5530700683595	-1359.932250976563	257.7623901367189	167.3444213867188	-991.8801269531255	1408.99267578125	387.1138916015627	
85	0.42	-851.5006713867192	1408.499267578125	226.4223632812501	-789.7932128906255	1218.5048828125	226.8470306396486	-792.0355834960942	1030.536499023438	363.5948181152345	-818.9845581054692	977.4648437500005	91.93525695800784	-768.581420898438	779.1787109375005	411.4313049316409	-816.460815429688	739.8513793945315	409.1888427734377	-785.242553710938	704.609313964844	390.8694763183596	-710.928649902344	370.7544250488282	326.5894165039064	-748.9880371093752	322.5681457519532	329.8795776367189	-710.3414306640627	293.0596008300782	314.7256164550782	-628.7630004882815	17.81519126892091	312.6713256835939	-569.9514160156252	31.7744541168213	272.0803833007814	-942.6694946289067	678.2869262695315	80.33131408691409	-968.7999877929692	643.698425292969	105.4835815429688	-1080.815307617188	391.3838500976565	91.7698669433594	-1129.438354492188	389.6094055175784	104.7723693847657	-1126.033569335938	327.4337158203126	101.4867324829102	-1339.389404296875	61.69984817504886	175.4517364501954	-1360.62451171875	91.7886657714844	130.6815185546876	-929.2329101562505	599.7795410156252	85.59590148925784	-782.2244262695317	24.51984977722169	226.2120513916017	-968.1918945312505	1054.1982421875	293.5159606933595	-1018.990051269532	1237.873413085938	221.5764007568361	-982.984985351563	1030.871459960938	222.8579559326173	-975.2766723632817	1038.801513671875	272.9453735351564	-968.7295532226567	1094.146850585938	236.7325134277345	-966.3557739257817	1500.240600585938	218.8132324218751	-981.2219238281255	1040.606323242188	195.0438842773439	-1347.55029296875	261.4136047363282	167.879623413086	-984.271362304688	1409.974487304688	387.5651855468752	
86	0.425	-844.2422485351567	1409.500854492188	226.5534210205079	-782.6599731445317	1219.450073242188	226.9127502441407	-785.0068359375005	1031.590209960938	363.9866027832032	-812.3619995117192	978.3085937500005	92.33014678955081	-762.766540527344	779.7411499023442	411.7528991699221	-810.9741821289067	740.757507324219	409.7878417968752	-780.1928100585942	705.2330322265627	391.313903808594	-708.9196777343752	370.5623168945314	327.2378234863282	-747.4505004882815	322.7321777343751	330.1729125976564	-708.9678344726565	292.882537841797	315.2915039062501	-628.8156738281252	17.72533226013184	312.790252685547	-569.9165039062502	31.74774551391603	272.155975341797	-931.864135742188	677.6638183593752	80.85961914062503	-957.253784179688	642.6364746093752	106.0940322875977	-1066.265991210938	391.7391052246096	91.38019561767581	-1114.994262695313	390.6256103515627	104.2248916625977	-1112.287475585938	328.3743286132814	101.383415222168	-1327.230834960938	64.37934112548831	173.1224517822266	-1348.5712890625	95.63320159912112	129.1053924560547	-917.0756835937505	599.3891601562502	85.9003601074219	-782.3130493164067	24.49059677124025	226.3183898925782	-961.2833862304692	1055.252563476563	294.0088806152345	-1011.86865234375	1238.958251953125	222.0502014160157	-976.1616210937505	1031.737915039063	223.4442138671876	-968.410034179688	1039.805297851563	273.4788513183595	-961.807250976563	1095.040893554688	237.1314086914064	-959.0761108398442	1501.317016601563	219.1340332031251	-974.3906860351567	1041.39111328125	195.6025390625001	-1335.19140625	264.7621154785157	168.516830444336	-976.711059570313	1410.994018554688	388.0127563476565	
87	0.43	-837.0407104492192	1410.5126953125	226.6728973388673	-775.6118164062505	1220.405151367188	226.9856567382814	-778.0290527343755	1032.577270507813	364.3699340820314	-805.797241210938	979.2524414062505	92.69379425048831	-757.132019042969	780.2155151367192	412.0945739746096	-805.6906127929692	741.610290527344	410.3490295410159	-775.3640747070317	705.787048339844	391.7515869140627	-707.049499511719	370.3467712402345	327.9344482421876	-746.0321044921877	322.8682250976564	330.4943847656251	-707.7009277343752	292.6875000000001	315.9033203125001	-628.8691406250002	17.61066436767579	312.9208374023439	-569.8925781250002	31.70486450195314	272.2337036132814	-921.1508178710942	677.2654418945315	81.34224700927737	-945.7702026367192	641.8189086914065	106.679801940918	-1051.725830078125	392.2987365722659	91.06429290771487	-1100.525146484375	391.7779541015627	103.813819885254	-1098.468505859375	329.4706115722657	101.3159713745118	-1314.04931640625	66.95809173583987	170.8512573242188	-1335.590209960938	99.16444396972662	127.5279541015626	-905.0136718750005	599.2480468750002	86.14807128906253	-782.401733398438	24.47122001647951	226.4319763183595	-954.4125366210942	1056.322998046875	294.5651855468751	-1004.813110351563	1240.0634765625	222.5510253906251	-969.382202148438	1032.644165039063	224.0855407714845	-961.5907592773442	1040.82958984375	274.0664978027345	-954.9418334960942	1095.9697265625	237.6069183349611	-951.841918945313	1502.408569335938	219.4407348632814	-967.603393554688	1042.226928710938	196.2220306396486	-1322.856079101563	267.7906188964845	169.2138824462891	-969.198852539063	1412.049560546875	388.457702636719	
88	0.435	-829.8950805664067	1411.533935546875	226.7827911376954	-768.6449584960942	1221.37060546875	227.0676574707032	-771.102661132813	1033.501586914063	364.7473449707032	-799.2785644531255	980.292602539063	93.03204345703128	-751.6685180664065	780.611450195313	412.452819824219	-800.594360351563	742.4135742187502	410.8773498535159	-770.7329101562505	706.2812500000002	392.1840820312502	-705.299011230469	370.1175231933595	328.6632385253907	-744.7114257812502	322.9834289550782	330.8411254882814	-706.5220336914065	292.4829101562501	316.5461730957032	-628.9219970703127	17.47745895385743	313.0606994628907	-569.8776855468752	31.64907264709474	272.3099975585939	-910.5397338867192	677.0799560546877	81.78408813476565	-934.359985351563	641.2320556640627	107.2448501586915	-1037.216186523438	393.0694274902346	90.82893371582034	-1086.050415039063	393.0639953613284	103.5530395507813	-1084.592529296875	330.7204895019532	101.2773895263672	-1299.893310546875	69.41045379638675	168.6736602783204	-1321.716552734375	102.3556823730469	125.9733657836915	-893.0571899414067	599.341735839844	86.34476470947268	-782.4890136718755	24.46269989013673	226.5516204833986	-947.5767211914067	1057.409790039063	295.1778564453126	-997.8198852539067	1241.186279296875	223.0789031982423	-962.641479492188	1033.590698242188	224.7737731933595	-954.8149414062505	1041.874267578125	274.7014160156251	-948.129028320313	1096.933959960938	238.152069091797	-944.6531372070317	1503.512939453125	219.7346954345704	-960.854370117188	1043.114501953125	196.8939666748048	-1310.535278320313	270.4860229492189	169.9322509765626	-961.7340698242192	1413.139526367188	388.9011535644534	
